<svg id="Icons" enable-background="new 0 0 512 512" height="512" viewBox="0 0 512 512" width="512" xmlns="http://www.w3.org/2000/svg"><g><path d="m512 256c0-70.693-28.654-134.693-74.981-181.019s-110.327-74.981-181.019-74.981c-70.693 0-134.692 28.654-181.019 74.981s-74.981 110.327-74.981 181.019c0 25.138 3.638 49.419 10.405 72.361s16.663 44.543 29.181 64.321h216.414 216.414c12.518-19.778 22.414-41.38 29.181-64.321 6.767-22.942 10.405-47.223 10.405-72.361z" fill="#06daf7"/><path d="m39.586 392.682c22.685 35.841 54.011 65.671 91.055 86.54s79.804 32.778 125.359 32.778 88.316-11.909 125.36-32.778 68.37-50.699 91.055-86.54h-216.415z" fill="#f95d95"/><path d="m121.546 132.309c1.325 0 2.571.33 3.663.911s2.031 1.414 2.744 2.418c3.84-1.332 7.145-3.82 9.49-7.048 2.345-3.227 3.729-7.194 3.729-11.481 0-5.41-2.201-10.316-5.755-13.869s-8.46-5.754-13.87-5.754-10.316 2.201-13.87 5.754-5.755 8.459-5.755 13.869c0 4.287 1.384 8.254 3.729 11.481 2.344 3.227 5.649 5.716 9.489 7.048.712-1.004 1.651-1.837 2.744-2.418 1.092-.58 2.337-.911 3.662-.911z" fill="none"/><path d="m121.547 97.487c-5.41 0-10.316 2.201-13.87 5.754s-5.755 8.459-5.755 13.869 0 0 0 0h19.625 19.625s0 0 0 0c0-5.41-2.201-10.316-5.755-13.869-3.554-3.554-8.46-5.754-13.87-5.754z" fill="none"/><path d="m420.612 117.11h-136.095-136.095c0 6.008-2.012 11.552-5.397 15.997s-8.143 7.793-13.634 9.41c.117-.373.216-.754.286-1.144.07-.391.11-.791.11-1.202 0-.846-.136-1.658-.387-2.419s-.614-1.471-1.068-2.112c3.84-1.332 7.145-3.82 9.489-7.048 2.345-3.227 3.729-7.193 3.729-11.481h-19.625-19.625-3.436-3.434-3.354-3.354c-3.961 0-7.547 1.606-10.143 4.201s-4.201 6.182-4.201 10.143v129.258 129.258c0 3.961 1.606 7.547 4.201 10.143 2.596 2.596 6.182 4.201 10.143 4.201h165.945 165.945c3.961 0 7.547-1.606 10.143-4.201 2.596-2.596 4.201-6.182 4.201-10.143v-129.258-129.259c0-3.961-1.606-7.547-4.201-10.143-2.596-2.595-6.182-4.201-10.143-4.201z" fill="#fff"/><path d="m127.953 135.639c-.712-1.004-1.651-1.837-2.744-2.418-1.092-.581-2.338-.911-3.663-.911s-2.571.33-3.663.911-2.031 1.414-2.744 2.418c1.006.349 2.046.623 3.115.809 1.07.187 2.168.286 3.291.286s2.221-.1 3.291-.286c1.071-.186 2.111-.46 3.117-.809z" fill="#052481"/><path d="m114.081 142.517c.501 1.594 1.488 2.973 2.789 3.953s2.917 1.562 4.676 1.562 3.375-.582 4.676-1.562 2.288-2.359 2.789-3.953c-1.185.349-2.403.621-3.649.806s-2.519.283-3.816.283-2.57-.098-3.816-.283-2.463-.457-3.649-.806z" fill="#052481"/><path d="m121.547 90.615c-7.304 0-13.928 2.971-18.726 7.769s-7.77 11.421-7.77 18.725 0 0 0 0h3.436 3.436s0 0 0 0c0-5.41 2.201-10.316 5.755-13.869s8.46-5.754 13.87-5.754 10.316 2.201 13.87 5.754 5.755 8.459 5.755 13.869 0 0 0 0c0 4.288-1.385 8.254-3.729 11.481-2.345 3.227-5.649 5.716-9.489 7.048-1.006.349-2.046.623-3.115.809-1.069.187-2.168.286-3.291.286s-2.222-.1-3.291-.286c-1.07-.187-2.11-.461-3.115-.809-.455.641-.818 1.351-1.069 2.112-.25.761-.387 1.573-.387 2.419 0 .411.04.812.11 1.202.07.391.169.771.286 1.144 1.185.349 2.403.621 3.649.806s2.52.283 3.816.283c1.297 0 2.57-.098 3.816-.283s2.464-.457 3.649-.806c5.492-1.617 10.249-4.964 13.634-9.41s5.397-9.989 5.397-15.997 0 0 0 0c0-7.304-2.972-13.928-7.77-18.725s-11.423-7.768-18.727-7.768z" fill="#5488e2"/><path d="m194.513 135.639c-.712-1.004-1.651-1.837-2.744-2.418-1.092-.581-2.338-.911-3.663-.911s-2.571.33-3.663.911-2.031 1.414-2.744 2.418c1.006.349 2.046.623 3.115.809 1.07.187 2.168.286 3.291.286s2.221-.1 3.291-.286c1.071-.186 2.111-.46 3.117-.809z" fill="#052481"/><path d="m180.641 142.517c.501 1.594 1.488 2.973 2.789 3.953s2.917 1.562 4.676 1.562 3.375-.582 4.676-1.562 2.288-2.359 2.789-3.953c-1.185.349-2.403.621-3.649.806s-2.519.283-3.816.283-2.57-.098-3.816-.283-2.463-.457-3.649-.806z" fill="#052481"/><path d="m188.107 90.615c-7.304 0-13.928 2.971-18.726 7.769s-7.77 11.421-7.77 18.725 0 0 0 0h3.436 3.436s0 0 0 0c0-5.41 2.201-10.316 5.755-13.869s8.46-5.754 13.87-5.754 10.316 2.201 13.87 5.754 5.755 8.459 5.755 13.869 0 0 0 0c0 4.288-1.385 8.254-3.729 11.481-2.345 3.227-5.649 5.716-9.489 7.048-1.006.349-2.046.623-3.115.809-1.069.187-2.168.286-3.291.286s-2.222-.1-3.291-.286c-1.07-.187-2.11-.461-3.115-.809-.455.641-.818 1.351-1.069 2.112-.25.761-.387 1.573-.387 2.419 0 .411.04.812.11 1.202.07.391.169.771.286 1.144 1.185.349 2.403.621 3.649.806s2.52.283 3.816.283c1.297 0 2.57-.098 3.816-.283s2.464-.457 3.649-.806c5.492-1.617 10.249-4.964 13.634-9.41 3.385-4.445 5.397-9.989 5.397-15.997s0 0 0 0c0-7.304-2.972-13.928-7.77-18.725-4.799-4.796-11.423-7.768-18.727-7.768z" fill="#5488e2"/><path d="m261.073 135.639c-.712-1.004-1.651-1.837-2.744-2.418-1.092-.581-2.338-.911-3.663-.911s-2.571.33-3.663.911-2.031 1.414-2.744 2.418c1.006.349 2.046.623 3.115.809 1.07.187 2.168.286 3.291.286s2.221-.1 3.291-.286c1.071-.186 2.112-.46 3.117-.809z" fill="#052481"/><path d="m247.202 142.517c.501 1.594 1.488 2.973 2.789 3.953s2.917 1.562 4.676 1.562 3.375-.582 4.676-1.562 2.288-2.359 2.789-3.953c-1.185.349-2.403.621-3.649.806s-2.519.283-3.816.283-2.57-.098-3.816-.283-2.464-.457-3.649-.806z" fill="#052481"/><path d="m254.667 90.615c-7.304 0-13.928 2.971-18.726 7.769s-7.77 11.421-7.77 18.725 0 0 0 0h3.436 3.436s0 0 0 0c0-5.41 2.201-10.316 5.755-13.869s8.46-5.754 13.87-5.754 10.316 2.201 13.87 5.754 5.755 8.459 5.755 13.869 0 0 0 0c0 4.288-1.385 8.254-3.729 11.481-2.345 3.227-5.649 5.716-9.489 7.048-1.006.349-2.046.623-3.115.809-1.069.187-2.168.286-3.291.286s-2.222-.1-3.291-.286c-1.07-.187-2.11-.461-3.115-.809-.455.641-.818 1.351-1.069 2.112-.25.761-.387 1.573-.387 2.419 0 .411.04.812.11 1.202.07.391.169.771.286 1.144 1.185.349 2.403.621 3.649.806s2.52.283 3.816.283c1.297 0 2.57-.098 3.816-.283s2.464-.457 3.649-.806c5.492-1.617 10.249-4.964 13.634-9.41s5.397-9.989 5.397-15.997 0 0 0 0c0-7.304-2.972-13.928-7.77-18.725-4.799-4.796-11.423-7.768-18.727-7.768z" fill="#5488e2"/><path d="m327.633 135.639c-.712-1.004-1.651-1.837-2.744-2.418-1.092-.581-2.338-.911-3.663-.911s-2.571.33-3.663.911-2.031 1.414-2.744 2.418c1.006.349 2.046.623 3.115.809 1.07.187 2.168.286 3.291.286s2.221-.1 3.291-.286c1.072-.186 2.112-.46 3.117-.809z" fill="#052481"/><path d="m313.762 142.517c.501 1.594 1.488 2.973 2.789 3.953s2.917 1.562 4.676 1.562 3.375-.582 4.676-1.562 2.288-2.359 2.789-3.953c-1.185.349-2.403.621-3.649.806s-2.519.283-3.816.283-2.57-.098-3.816-.283-2.464-.457-3.649-.806z" fill="#052481"/><path d="m321.227 90.615c-7.304 0-13.928 2.971-18.726 7.769s-7.77 11.421-7.77 18.725 0 0 0 0h3.436 3.436s0 0 0 0c0-5.41 2.201-10.316 5.755-13.869s8.46-5.754 13.87-5.754 10.316 2.201 13.87 5.754 5.755 8.459 5.755 13.869 0 0 0 0c0 4.288-1.385 8.254-3.729 11.481-2.345 3.227-5.649 5.716-9.489 7.048-1.006.349-2.046.623-3.115.809-1.069.187-2.168.286-3.291.286s-2.222-.1-3.291-.286c-1.07-.187-2.11-.461-3.115-.809-.455.641-.818 1.351-1.069 2.112-.25.761-.387 1.573-.387 2.419 0 .411.04.812.11 1.202.07.391.169.771.286 1.144 1.185.349 2.403.621 3.649.806s2.52.283 3.816.283c1.297 0 2.57-.098 3.816-.283s2.464-.457 3.649-.806c5.492-1.617 10.249-4.964 13.634-9.41 3.385-4.445 5.397-9.989 5.397-15.997s0 0 0 0c0-7.304-2.972-13.928-7.77-18.725s-11.422-7.768-18.727-7.768z" fill="#5488e2"/><path d="m394.193 135.639c-.712-1.004-1.651-1.837-2.744-2.418-1.092-.581-2.338-.911-3.663-.911s-2.57.33-3.663.911-2.031 1.414-2.744 2.418c1.006.349 2.046.623 3.115.809 1.07.187 2.168.286 3.291.286s2.221-.1 3.291-.286c1.072-.186 2.112-.46 3.117-.809z" fill="#052481"/><path d="m380.322 142.517c.501 1.594 1.488 2.973 2.789 3.953s2.917 1.562 4.676 1.562 3.375-.582 4.676-1.562 2.288-2.359 2.789-3.953c-1.185.349-2.403.621-3.649.806s-2.519.283-3.816.283-2.57-.098-3.816-.283-2.464-.457-3.649-.806z" fill="#052481"/><path d="m387.787 90.615c-7.304 0-13.928 2.971-18.726 7.769s-7.77 11.421-7.77 18.725 0 0 0 0h3.436 3.436s0 0 0 0c0-5.41 2.201-10.316 5.755-13.869s8.46-5.754 13.87-5.754 10.316 2.201 13.87 5.754 5.755 8.459 5.755 13.869 0 0 0 0c0 4.288-1.385 8.254-3.729 11.481-2.345 3.227-5.649 5.716-9.489 7.048-1.006.349-2.046.623-3.115.809-1.069.187-2.168.286-3.291.286s-2.222-.1-3.291-.286c-1.07-.187-2.11-.461-3.115-.809-.455.641-.818 1.351-1.069 2.112-.25.761-.387 1.573-.387 2.419 0 .411.04.812.11 1.202.07.391.169.771.286 1.144 1.185.349 2.403.621 3.649.806s2.52.283 3.816.283c1.297 0 2.57-.098 3.816-.283s2.464-.457 3.649-.806c5.492-1.617 10.249-4.964 13.634-9.41 3.385-4.445 5.397-9.989 5.397-15.997s0 0 0 0c0-7.304-2.972-13.928-7.77-18.725-4.798-4.796-11.422-7.768-18.727-7.768z" fill="#5488e2"/><g fill="#f4b500"><path d="m153.616 240.02h-20.775-20.775v-20.776-20.775h20.775 20.775v20.775z"/><path d="m214.529 240.02h-20.775-20.776v-20.776-20.775h20.776 20.775v20.775z"/><path d="m275.442 240.02h-20.775-20.776v-20.776-20.775h20.776 20.775v20.775z"/><path d="m336.355 240.02h-20.776-20.775v-20.776-20.775h20.775 20.776v20.775z"/><path d="m397.268 240.02h-20.776-20.775v-20.776-20.775h20.775 20.776v20.775z"/><path d="m153.616 296.768h-20.775-20.775v-20.775-20.775h20.775 20.775v20.775z"/><path d="m214.529 296.768h-20.775-20.776v-20.775-20.775h20.776 20.775v20.775z"/><path d="m275.442 296.768h-20.775-20.776v-20.775-20.775h20.776 20.775v20.775z"/><path d="m336.355 296.768h-20.776-20.775v-20.775-20.775h20.775 20.776v20.775z"/><path d="m397.268 296.768h-20.776-20.775v-20.775-20.775h20.775 20.776v20.775z"/><path d="m153.616 353.516h-20.775-20.775v-20.775-20.775h20.775 20.775v20.775z"/><path d="m214.529 353.516h-20.775-20.776v-20.775-20.775h20.776 20.775v20.775z"/><path d="m275.442 353.516h-20.775-20.776v-20.775-20.775h20.776 20.775v20.775z"/><path d="m336.355 353.516h-20.776-20.775v-20.775-20.775h20.775 20.776v20.775z"/><path d="m397.268 353.516h-20.776-20.775v-20.775-20.775h20.775 20.776v20.775z"/></g><path d="m397.268 353.516h-51.232-51.232v-49.149-49.149h51.232 51.232v49.149z" fill="#f95d95"/><g><path d="m365.879 272.893c-2.875-1.816-6.01-3.258-9.339-4.245s-6.853-1.521-10.504-1.521c-10.284 0-19.594 4.168-26.333 10.907s-10.907 16.049-10.907 26.333c0 4.178.696 8.188 1.974 11.931 1.277 3.743 3.135 7.218 5.459 10.324 3.396 4.54 7.795 8.286 12.871 10.898 5.077 2.611 10.831 4.087 16.937 4.087 10.284 0 19.594-4.168 26.333-10.907s10.907-16.049 10.907-26.333c0-6.632-1.739-12.851-4.783-18.237-3.045-5.386-7.394-9.939-12.615-13.237z" fill="#052481"/></g><path d="m341.718 326.154-10.772-10.773-10.772-10.773 4.465-4.463 4.464-4.464 6.308 6.308 6.307 6.307 10.626-10.625 10.625-10.625 4.464 4.463 4.465 4.464-15.09 15.09z" fill="#fff"/></g></svg>