<?xml version="1.0" standalone="no"?>
<!DOCTYPE svg PUBLIC "-//W3C//DTD SVG 20010904//EN"
 "http://www.w3.org/TR/2001/REC-SVG-20010904/DTD/svg10.dtd">
<svg version="1.0" xmlns="http://www.w3.org/2000/svg"
 width="781.000000pt" height="1280.000000pt" viewBox="0 0 781.000000 1280.000000"
 preserveAspectRatio="xMidYMid meet">
<metadata>
Created by potrace 1.15, written by Peter Selinger 2001-2017
</metadata>
<g transform="translate(0.000000,1280.000000) scale(0.100000,-0.100000)"
fill="#00bcd4" stroke="none">
<path d="M3750 12793 c-539 -52 -1157 -234 -1627 -478 -364 -189 -649 -400
-953 -704 -382 -384 -658 -785 -952 -1388 -157 -323 -205 -479 -215 -709 -18
-385 147 -747 418 -921 93 -59 1224 -672 1289 -699 158 -64 370 -71 545 -19
100 29 242 100 327 163 189 139 289 273 448 596 186 379 290 538 470 716 52
52 138 125 190 163 113 80 336 193 476 241 120 41 382 108 394 101 14 -9 69
-150 96 -247 35 -127 44 -342 20 -473 -58 -310 -236 -611 -546 -925 -261 -264
-493 -441 -997 -760 -291 -185 -510 -527 -574 -898 -18 -107 -19 -168 -19
-1027 0 -998 0 -995 59 -1169 73 -215 212 -393 389 -499 176 -106 1235 -673
1292 -692 214 -73 443 -54 665 54 358 174 626 553 690 981 11 73 15 208 15
575 l0 480 112 85 c1011 765 1681 1711 1937 2736 127 505 145 1068 50 1562
-170 892 -664 1657 -1371 2125 -99 66 -1200 672 -1429 788 -252 126 -538 210
-818 238 -96 10 -299 12 -381 4z"/>
<path d="M3456 3104 c-368 -79 -700 -396 -845 -807 -56 -161 -72 -260 -78
-498 -8 -318 18 -487 101 -665 73 -155 189 -295 310 -373 95 -62 1233 -678
1304 -707 220 -88 501 -64 732 62 273 150 487 415 595 737 48 143 65 254 72
462 12 369 -40 601 -181 813 -52 79 -169 194 -246 244 -86 56 -1229 674 -1289
698 -128 50 -330 65 -475 34z"/>
</g>
</svg>
