<?xml version="1.0" standalone="no"?>
<!DOCTYPE svg PUBLIC "-//W3C//DTD SVG 20010904//EN"
 "http://www.w3.org/TR/2001/REC-SVG-20010904/DTD/svg10.dtd">
<svg version="1.0" xmlns="http://www.w3.org/2000/svg"
 width="997.000000pt" height="1280.000000pt" viewBox="0 0 997.000000 1280.000000"
 preserveAspectRatio="xMidYMid meet">
<metadata>
Created by potrace 1.15, written by Peter Selinger 2001-2017
</metadata>
<g transform="translate(0.000000,1280.000000) scale(0.100000,-0.100000)"
fill="#2196f3" stroke="none">
<path d="M3045 12782 c-27 -10 -230 -122 -450 -248 -220 -127 -506 -291 -635
-364 -301 -171 -350 -219 -382 -374 -23 -106 -15 -124 273 -615 480 -820 1464
-2453 1505 -2500 54 -59 132 -106 213 -127 113 -28 117 -27 650 279 262 151
553 318 648 371 236 134 298 204 325 370 21 129 12 151 -211 521 -1045 1729
-1554 2566 -1580 2597 -73 87 -245 131 -356 90z"/>
<path d="M1193 11440 c-530 -152 -892 -537 -1069 -1139 -285 -967 -66 -2490
601 -4181 675 -1710 1696 -3334 2810 -4469 954 -971 1864 -1506 2775 -1632
127 -18 508 -18 625 -1 218 33 412 85 604 161 86 35 177 76 189 86 5 4 -872
1531 -975 1695 -105 168 -311 504 -630 1030 -170 279 -140 257 -293 219 -128
-31 -394 -34 -545 -5 -331 61 -711 251 -1050 523 -139 111 -397 363 -527 513
-197 228 -397 506 -563 785 -101 170 -151 270 -218 440 -168 426 -272 819
-323 1220 -25 198 -23 540 5 722 53 353 178 647 377 890 30 36 52 68 50 72 -2
3 -56 95 -120 204 -168 286 -414 732 -816 1477 -492 914 -776 1420 -795 1419
-5 0 -56 -13 -112 -29z"/>
<path d="M7690 4686 c-19 -8 -237 -130 -485 -273 -247 -143 -533 -306 -635
-363 -199 -113 -268 -169 -308 -251 -51 -105 -48 -215 7 -313 701 -1244 1679
-2927 1734 -2984 18 -18 61 -48 97 -65 59 -29 73 -32 160 -32 l96 0 159 92
c88 50 385 220 660 377 275 158 512 299 528 314 41 38 76 95 98 160 22 63 26
199 7 253 -6 19 -100 185 -208 369 -109 184 -403 688 -655 1120 -656 1125
-854 1460 -887 1502 -18 23 -55 50 -96 70 -57 28 -78 33 -152 35 -53 2 -98 -3
-120 -11z"/>
</g>
</svg>
