<?xml version="1.0" standalone="no"?>
<!DOCTYPE svg PUBLIC "-//W3C//DTD SVG 20010904//EN"
 "http://www.w3.org/TR/2001/REC-SVG-20010904/DTD/svg10.dtd">
<svg version="1.0" xmlns="http://www.w3.org/2000/svg"
 width="1280.000000pt" height="708.000000pt" viewBox="0 0 1280.000000 708.000000"
 preserveAspectRatio="xMidYMid meet">
<metadata>
Created by potrace 1.15, written by Peter Selinger 2001-2017
</metadata>
<g transform="translate(0.000000,708.000000) scale(0.100000,-0.100000)"
fill="#000000" stroke="none">
<path d="M7145 7066 c-220 -43 -366 -169 -435 -376 -30 -91 -38 -277 -16 -380
47 -222 202 -384 417 -435 95 -22 258 -20 349 6 207 57 332 183 390 391 24 87
27 281 6 368 -54 220 -191 363 -396 413 -94 24 -232 29 -315 13z m229 -246
c107 -40 170 -146 182 -303 13 -167 -37 -312 -128 -373 -98 -66 -210 -66 -305
0 -130 89 -171 356 -84 542 63 134 194 186 335 134z"/>
<path d="M2335 7064 c-186 -30 -299 -99 -356 -219 -25 -51 -29 -72 -29 -141 0
-103 20 -160 77 -225 72 -79 166 -120 368 -159 139 -27 189 -49 210 -90 22
-43 7 -80 -48 -111 -38 -22 -53 -24 -157 -23 -138 1 -231 27 -350 99 -115 68
-111 72 -108 -102 l3 -146 69 -24 c248 -83 544 -79 720 9 193 97 258 370 125
522 -72 81 -151 116 -374 166 -71 15 -142 33 -157 39 -66 25 -89 88 -45 129
41 38 90 52 189 52 130 0 205 -23 361 -111 21 -12 40 -19 43 -16 4 4 7 187 4
274 0 12 -87 41 -190 63 -58 12 -303 22 -355 14z"/>
<path d="M3110 6653 c1 -288 4 -415 14 -459 47 -218 224 -334 510 -334 128 0
211 17 296 60 84 43 125 82 164 160 51 102 57 175 54 600 l-3 365 -152 3 -153
3 0 -388 c0 -253 -4 -402 -11 -428 -26 -93 -92 -137 -209 -137 -101 0 -154 35
-185 121 -12 36 -15 109 -15 437 l0 394 -155 0 -155 0 0 -397z"/>
<path d="M4420 6465 l0 -585 150 0 150 0 0 189 0 189 163 4 c182 5 227 16 317
76 114 77 174 199 173 355 -1 78 -4 95 -32 152 -50 102 -136 160 -279 190 -49
11 -144 15 -354 15 l-288 0 0 -585z m527 340 c75 -22 113 -69 113 -139 0 -111
-73 -164 -240 -173 l-100 -6 0 167 0 166 88 0 c50 0 111 -7 139 -15z"/>
<path d="M5582 6468 l3 -583 150 0 150 0 3 188 2 187 133 0 c204 0 294 28 392
121 90 85 133 207 122 343 -14 162 -122 272 -308 311 -53 11 -142 15 -360 15
l-289 0 2 -582z m568 321 c80 -44 100 -133 50 -214 -33 -54 -126 -85 -251 -85
l-59 0 0 166 0 167 108 -5 c91 -4 115 -8 152 -29z"/>
<path d="M8100 6465 l0 -586 148 3 147 3 3 210 2 210 71 -3 c70 -4 70 -4 100
-45 16 -23 85 -117 152 -209 l122 -167 183 -1 c123 0 182 3 182 11 0 6 -83
117 -185 247 -102 130 -185 240 -185 244 0 4 9 10 20 13 35 11 134 111 158
159 33 65 46 160 33 233 -21 109 -90 187 -208 235 -56 22 -69 23 -400 26
l-343 3 0 -586z m567 336 c59 -27 77 -58 71 -128 -4 -49 -10 -61 -40 -89 -42
-38 -106 -54 -218 -54 l-80 0 0 145 0 145 113 0 c88 0 121 -4 154 -19z"/>
<path d="M9222 6933 l3 -118 177 -3 178 -2 2 -463 3 -462 150 0 150 0 3 462 2
463 178 2 177 3 3 118 3 117 -516 0 -516 0 3 -117z"/>
<path d="M11290 4804 c-434 -54 -804 -251 -987 -527 -178 -267 -170 -588 20
-844 l47 -63 -54 -77 c-144 -207 -167 -244 -173 -278 -4 -26 -1 -41 12 -55 39
-43 85 -36 354 59 221 78 223 78 303 42 83 -38 242 -85 361 -108 71 -14 144
-17 322 -17 201 0 243 3 335 23 309 66 546 186 725 366 249 251 310 556 171
850 -139 293 -460 512 -880 601 -101 21 -153 26 -321 29 -110 2 -216 1 -235
-1z m349 -84 c530 -47 960 -331 1055 -697 9 -34 16 -101 16 -153 0 -226 -109
-420 -328 -585 -394 -295 -1039 -358 -1527 -149 -110 46 -139 45 -315 -17
-199 -70 -293 -99 -298 -94 -6 6 30 61 110 168 115 155 120 185 52 272 -217
280 -187 630 77 895 263 262 705 400 1158 360z"/>
<path d="M11035 3727 c-17 -14 -28 -36 -32 -63 -5 -36 -1 -46 25 -75 25 -28
37 -34 72 -34 35 0 47 6 71 33 40 44 40 93 0 133 -38 37 -97 40 -136 6z"/>
<path d="M11339 3721 c-40 -40 -40 -89 0 -133 24 -27 36 -33 71 -33 35 0 47 6
71 33 40 44 40 93 0 133 -23 23 -38 29 -71 29 -33 0 -48 -6 -71 -29z"/>
<path d="M11649 3721 c-40 -40 -40 -89 0 -133 24 -27 36 -33 71 -33 35 0 47 6
71 33 40 44 40 93 0 133 -23 23 -38 29 -71 29 -33 0 -48 -6 -71 -29z"/>
<path d="M1530 4400 c-331 -46 -635 -277 -797 -605 -38 -79 -88 -222 -107
-307 -5 -21 -12 -28 -30 -28 -54 0 -56 -11 -56 -271 0 -226 1 -240 20 -259 25
-25 61 -26 91 -1 18 15 25 32 29 77 4 51 8 59 27 62 17 3 24 -3 29 -25 60
-264 137 -453 262 -643 73 -110 210 -247 279 -279 l53 -24 0 -72 0 -72 -137
-12 c-253 -23 -447 -65 -608 -132 -94 -39 -250 -138 -278 -176 -12 -17 -42
-55 -66 -84 -55 -68 -133 -228 -165 -339 -43 -151 -76 -402 -76 -578 l0 -73
143 2 c135 1 142 0 145 -19 3 -18 -4 -20 -64 -24 -115 -7 -119 -33 -33 -255
65 -170 93 -211 164 -244 38 -18 94 -19 1303 -19 1387 0 1297 -4 1360 62 40
42 175 364 170 406 -4 34 -38 52 -100 52 -43 0 -48 2 -48 23 0 22 1 22 157 22
l158 0 -2 147 c-1 81 -9 198 -18 260 -97 659 -415 913 -1222 974 l-93 7 0 66
0 66 45 18 c24 10 65 34 90 54 l46 35 66 -63 c106 -98 340 -237 362 -214 5 6
19 45 30 88 72 278 46 510 -79 692 l-28 40 40 45 c22 25 51 66 63 91 21 41 27
45 53 41 21 -3 36 2 51 17 20 20 21 31 21 260 0 204 -2 242 -16 255 -8 9 -22
16 -30 16 -17 0 -28 24 -50 110 -56 229 -210 467 -397 616 -100 80 -270 165
-387 194 -98 24 -273 33 -370 20z m373 -69 c80 -21 226 -86 262 -115 11 -9 -8
-3 -43 14 -202 99 -583 125 -808 55 -10 -4 -7 1 7 9 23 13 138 46 209 60 63
12 297 -2 373 -23z m644 -536 c39 -76 86 -195 80 -201 -2 -2 -16 29 -32 68
-15 40 -47 111 -71 158 -24 47 -37 76 -28 65 9 -11 32 -51 51 -90z m-1738 16
c-35 -84 -83 -268 -107 -416 l-19 -110 -6 96 c-5 83 -3 108 17 180 13 46 33
109 45 139 22 54 89 180 96 180 1 0 -10 -31 -26 -69z m1817 -946 c-40 -68 -45
-61 -19 33 12 48 24 98 24 112 1 14 6 -3 11 -38 9 -58 8 -65 -16 -107z"/>
<path d="M8835 4244 c-75 -12 -197 -50 -271 -84 -305 -141 -539 -440 -624
-797 -8 -38 -17 -53 -29 -53 -9 0 -27 -7 -39 -16 -22 -15 -22 -18 -22 -259 0
-273 0 -275 69 -275 50 0 59 13 63 85 3 54 5 60 28 65 24 6 26 3 57 -121 92
-369 318 -727 520 -826 l54 -26 -3 -71 -3 -71 -139 -12 c-567 -48 -872 -204
-1034 -528 -93 -186 -152 -478 -152 -751 l0 -94 1680 0 1680 0 0 63 c0 100
-19 293 -40 414 -57 324 -182 542 -389 682 -162 110 -416 183 -726 211 -71 6
-145 13 -162 16 l-33 5 0 63 0 62 54 23 c30 12 71 37 92 55 l39 34 64 -61
c116 -108 353 -246 372 -216 15 24 48 175 60 269 23 190 -16 367 -111 505
l-32 46 41 44 c23 25 51 65 63 90 20 41 25 45 59 45 66 0 69 12 69 273 0 130
-4 236 -10 247 -5 10 -23 23 -40 28 -19 7 -30 18 -30 29 0 41 -65 224 -113
317 -94 184 -221 327 -384 433 -170 111 -307 154 -508 158 -77 2 -153 1 -170
-1z m307 -55 c105 -18 285 -91 353 -143 11 -8 -16 2 -60 24 -97 47 -200 75
-337 91 -118 13 -297 7 -402 -16 -82 -17 -97 -13 -29 8 167 54 304 64 475 36z
m695 -516 c41 -74 103 -219 103 -243 0 -8 -20 33 -43 91 -24 58 -58 131 -76
162 -18 32 -30 57 -27 57 3 0 22 -30 43 -67z m-1712 3 c-36 -82 -72 -208 -99
-351 -14 -71 -28 -148 -33 -170 -6 -35 -8 -29 -13 50 -7 106 16 218 74 353 33
77 83 172 91 172 2 0 -7 -24 -20 -54z m1810 -963 c-40 -67 -44 -59 -19 38 13
50 25 101 25 113 1 11 5 -8 10 -44 8 -59 6 -68 -16 -107z"/>
</g>
</svg>
